<svg class="ugma-credits" version="1.0" xmlns="http://www.w3.org/2000/svg" width="100pt" height="100pt"
          viewBox="0 0 300.000000 261.000000" preserveAspectRatio="xMidYMid meet">

          <g transform="translate(0.000000,261.000000) scale(0.100000,-0.100000)" fill="#000000" stroke="none">
            <path d="M1403 2528 c-91 -65 -102 -76 -98 -98 2 -14 36 -261 75 -550 39 -288
          73 -526 75 -528 2 -2 12 -1 23 2 19 6 20 23 27 589 4 320 5 599 3 620 l-3 37
          -102 -72z" />
            <path d="M991 2437 c-66 -90 -73 -104 -64 -127 5 -14 105 -240 223 -502 132
          -297 218 -478 227 -478 7 0 16 6 19 13 4 12 -303 1131 -324 1179 -5 13 -24 -6
          -81 -85z" />
            <path d="M1836 2479 c-65 -21 -120 -40 -122 -42 -2 -2 -40 -237 -84 -523 -44
          -285 -83 -529 -85 -541 -4 -19 -1 -23 19 -23 23 0 33 25 219 585 110 329 190
          585 184 584 -7 -1 -65 -18 -131 -40z" />
            <path d="M612 2220 l-41 -121 361 -407 c199 -224 363 -409 365 -411 2 -3 10 2
          18 10 13 13 -25 76 -319 527 -184 282 -336 515 -339 518 -3 3 -23 -49 -45
          -116z" />
            <path d="M2233 2317 l-113 -10 -242 -480 c-134 -264 -244 -484 -246 -488 -2
          -4 5 -12 15 -18 17 -8 58 47 364 490 189 274 346 504 347 509 2 6 0 9 -5 8 -4
          0 -59 -6 -120 -11z" />
            <path d="M2124 1733 c-191 -203 -365 -386 -386 -409 -32 -34 -37 -43 -25 -52
          14 -12 65 28 888 693 l78 63 -100 36 c-55 20 -102 36 -104 36 -2 0 -160 -165
          -351 -367z" />
            <path d="M315 1932 c-3 -53 -7 -107 -8 -120 -2 -19 63 -63 462 -317 463 -293
          491 -308 491 -260 0 10 -759 654 -916 777 l-22 18 -7 -98z" />
            <path d="M2238 1497 c-263 -149 -478 -276 -478 -282 1 -5 6 -18 13 -27 12 -15
          63 4 565 215 304 128 552 235 552 239 0 5 -166 128 -173 128 -1 0 -217 -123
          -479 -273z" />
            <path d="M105 1608 c3 -18 12 -75 20 -127 8 -52 16 -96 19 -98 5 -5 1059 -273
          1062 -270 1 1 4 11 6 21 3 17 -73 53 -552 263 -305 133 -556 243 -558 243 -2
          0 0 -15 3 -32z" />
            <path d="M2340 1260 l-535 -127 -3 -28 c-3 -26 -2 -27 30 -22 18 3 283 29 588
          58 305 29 559 55 563 59 8 7 -72 151 -97 176 -8 8 -157 -24 -546 -116z" />
            <path d="M1435 1216 c-115 -51 -140 -202 -49 -288 89 -83 232 -53 280 59 61
          142 -90 292 -231 229z" />
            <path d="M14 1174 c3 -8 23 -54 43 -101 l38 -86 155 7 c85 4 333 13 550 20
          217 8 396 14 398 15 1 1 2 10 2 20 0 16 -9 21 -42 26 -69 9 -1105 115 -1129
          115 -15 0 -19 -4 -15 -16z" />
            <path d="M1800 1018 c0 -22 17 -27 318 -97 174 -41 324 -76 332 -78 15 -3 107
          124 96 134 -4 4 -658 59 -738 63 -5 0 -8 -10 -8 -22z" />
            <path d="M885 920 c-154 -32 -294 -61 -311 -65 -29 -5 -31 -9 -43 -76 -7 -39
          -11 -73 -8 -76 3 -3 160 49 349 115 284 99 343 123 343 139 0 12 -8 19 -25 20
          -14 1 -151 -25 -305 -57z" />
            <path d="M1773 921 c-11 -18 10 -32 281 -185 161 -91 296 -166 299 -166 4 0
          32 17 63 37 42 28 52 39 41 45 -14 7 -666 288 -670 288 -1 0 -8 -9 -14 -19z" />
            <path d="M950 739 c-156 -88 -288 -163 -292 -167 -10 -10 12 -162 23 -162 5 0
          137 102 294 226 267 212 307 250 270 260 -5 2 -138 -69 -295 -157z" />
            <path d="M1720 845 c-10 -12 21 -50 191 -232 111 -120 217 -233 235 -252 l32
          -34 66 28 c36 15 63 32 60 36 -9 16 -554 469 -563 469 -5 0 -14 -7 -21 -15z" />
            <path d="M1080 598 c-118 -133 -219 -249 -224 -259 -6 -13 -1 -38 14 -80 23
          -60 24 -61 40 -41 42 51 410 581 410 590 0 5 -6 14 -13 20 -10 8 -63 -45 -227
          -230z" />
            <path d="M1648 789 c-16 -9 -2 -42 132 -309 l150 -300 76 0 c57 0 73 3 68 13
          -19 31 -404 607 -407 607 -1 0 -10 -5 -19 -11z" />
            <path d="M1340 718 c-16 -35 -78 -171 -138 -303 l-109 -240 40 -57 c23 -32 44
          -58 47 -58 4 0 57 158 118 352 111 347 115 367 79 368 -4 0 -21 -28 -37 -62z" />
            <path d="M1571 761 c-11 -7 -5 -67 30 -337 24 -181 47 -332 52 -335 15 -11
          137 -42 143 -37 5 6 -195 698 -205 710 -3 4 -12 3 -20 -1z" />
            <path d="M1457 728 c-14 -76 -89 -640 -85 -642 23 -18 128 -76 137 -76 8 0 11
          104 11 370 0 313 -2 370 -14 370 -8 0 -21 3 -29 6 -10 4 -16 -4 -20 -28z" />
          </g>
        </svg>